<svg id="facebook_7_" data-name="facebook (7)" xmlns="http://www.w3.org/2000/svg" width="21" height="21" viewBox="0 0 21 21">
  <path id="Path_278" data-name="Path 278" d="M18.375,0H2.625A2.628,2.628,0,0,0,0,2.625v15.75A2.628,2.628,0,0,0,2.625,21h15.75A2.628,2.628,0,0,0,21,18.375V2.625A2.628,2.628,0,0,0,18.375,0Z" fill="#1976d2"/>
  <path id="Path_279" data-name="Path 279" d="M201.844,102.562h-3.281V99.937c0-.725.588-.656,1.313-.656h1.313V96h-2.625a3.937,3.937,0,0,0-3.937,3.937v2.625H192v3.281h2.625v7.219h3.938v-7.219h1.969Z" transform="translate(-184.125 -92.062)" fill="#fafafa"/>
</svg>
