<svg id="search_3_" data-name="search (3)" xmlns="http://www.w3.org/2000/svg" width="21" height="21" viewBox="0 0 21 21">
  <path id="Path_274" data-name="Path 274" d="M4.654,145.287l-.731,2.729-2.672.057a10.518,10.518,0,0,1-.077-9.8h0l2.379.436L4.6,141.068a6.266,6.266,0,0,0,.059,4.219Z" transform="translate(0 -132.597)" fill="#fbbb00"/>
  <path id="Path_275" data-name="Path 275" d="M271.714,208.176a10.5,10.5,0,0,1-3.743,10.15h0l-3-.153-.424-2.647a6.258,6.258,0,0,0,2.693-3.2h-5.615v-4.154h10.086Z" transform="translate(-250.897 -199.638)" fill="#518ef8"/>
  <path id="Path_276" data-name="Path 276" d="M46.331,315.406h0a10.5,10.5,0,0,1-15.822-3.212l3.4-2.785a6.245,6.245,0,0,0,9,3.2Z" transform="translate(-29.258 -296.718)" fill="#28b446"/>
  <path id="Path_277" data-name="Path 277" d="M44.652,2.417,41.251,5.2a6.244,6.244,0,0,0-9.205,3.269l-3.421-2.8h0A10.5,10.5,0,0,1,44.652,2.417Z" transform="translate(-27.45)" fill="#f14336"/>
</svg>
